# xmcd
#
# Track frame offsets:
#	150
#	21760
#	43586
#	67216
#	88372
#
# Disc length: 1439 seconds
#
# Revision: 0
# Processed by: cddbd v1.5.2PL0 Copyright (c) Steve Scherf et al.
# Submitted via: dBpowerAMP V4.0
#
DISCID=43059d05
DTITLE=eesha - race
DYEAR=1900
DGENRE=Acid
TTITLE0=1
TTITLE1=2
TTITLE2=3
TTITLE3=4
TTITLE4=e
EXTD=
EXTT0=
EXTT1=
EXTT2=
EXTT3=
EXTT4=
PLAYORDER=
